<svg id="Layer_1" data-name="Layer 1" xmlns="http://www.w3.org/2000/svg" viewBox="0 0 1550 1000">
    <defs>
        <style>
            .cls-1 {
                fill: #4CA1D6;
            }
        </style>
    </defs>
    <path class="cls-1"
        d="M1454.63,529.15a75.26,75.26,0,0,0-3-11.29q-1-2.91-2.26-5.89c-.83-2-1.75-4-2.76-6.08q-3.93-8.06-7.41-16.34c-4.66-11-8.84-22.3-12.93-33.59-2-5.65-4.08-11.3-6.13-16.93-2.32-6.37-4.13-12.91-5.9-19.48-.89-3.28-1.76-6.56-2.68-9.83s-1.9-6.52-3-9.74c-8.5-25.29-21.54-47.47-42.25-64.69a.66.66,0,0,1,0-.14l-.65-.52a191.58,191.58,0,0,0-32.82-21,120.81,120.81,0,0,1-27.31-19.48,107.11,107.11,0,0,1-13.34-15.75c-4.52-8.62-7.57-15.41-8.8-24-.45-4.38-1.35-12.49-2.39-16.28-1.63-6-3.66-14-4.19-16.29-4.17-18-6.67-26.28-12.36-43.9q-2.84-8.82-6-17.51a252,252,0,0,0-19.27-41q-2.82-4.83-5.81-9.52-6-9.39-12.65-18.29t-13.88-17.37q-7.2-8.49-14.9-16.59t-15.76-15.94q-8.05-7.83-16.41-15.42-4.17-3.79-8.4-7.55a32.24,32.24,0,0,0-11.21-6,26.47,26.47,0,0,0-6.18-1.19,11.37,11.37,0,0,0-5.13.7,10.29,10.29,0,0,0-3.85,3.22,25.55,25.55,0,0,0-3.13,5.33c-.44,1-.85,2-1.21,3.1a36,36,0,0,0-1.94,9.3,196.62,196.62,0,0,0,.08,22.51c.43,7.53,1.25,15,2.34,22.46,5.87,39.94,19.85,76.86,37.77,112.23,6,11.79,12.39,23.4,19.08,34.9,7.29,12.51,15,24.78,22.62,37.09q5,8.16,10,16.39c1.28,2.16,3,5,3.18,5.25,3.55,4.39,7,8.5,9.56,13.1,3.13,5.56,7.12,13.39,6.87,23.54-.32,12.24-1.78,14.92-7.15,22.17a14.3,14.3,0,0,1-1,1.26c-7.7,8.15-18.79,13.92-33.13,17.2-31.78,7.29-61.25,2.81-88.67-13h0c-3.33-1.92-6.63-3.92-9.9-6.17-14.62-10.07-29.58-19.44-44.8-28.26,0-.24,0-.48,0-.72C999,286.86,950,265.31,899.74,246c-122.41-47.07-249.15-74.53-379.82-83.22a1174.79,1174.79,0,0,0-394.36,40.48c-3.13.86-6.1,2.28-10,3.76,1.87,1,2.53,1.67,3.18,1.65a44.57,44.57,0,0,0,5.85-.66q231.79-38.91,462.19,2.37h-.29c180,38.78,299.42,100.91,374.55,154.49,11.6,8.28,1.09,26.13-11.77,20a1300.67,1300.67,0,0,0-436.6-121.21q-51-7.41-102.8-10.87A1174.78,1174.78,0,0,0,15.53,293.23c-3.13.87-6.1,2.28-10,3.76,1.87,1,2.53,1.68,3.18,1.66l.28,0a2,2,0,0,0,1.05.4,46.34,46.34,0,0,0,5.85-.66Q232.68,262,448.25,295.64l1,.19c142.72,30.82,247.36,76.33,322,120.57,17.57,10.43,4.16,37.06-14.66,29.11l-1.71-.73a993.41,993.41,0,0,0-129.46-47.94l.06.05q-36.26-12.11-73.67-21.59Q356.26,326,145.32,362.65c-3.39.59-6.82,1.9-11.18,3.14,1.54,1.58,2,2.53,2.64,2.61a38.05,38.05,0,0,0,6.05.11c174.25-8.36,336.43,32.22,489.32,101.93,16.09,7.34,32.54,15,49.16,23,33.26,17,65.68,35.59,96.27,55.13,4.92,3.14,11.35,7,17.4,10.7,3.51,2.26,7,4.49,10.37,6.65l.06,0h0c6.76,4.31,13.25,8.39,19.2,12,5.56,3.33,10.72,6.71,15.69,10.12,17.27,9.95,33.91,21,51,31.35a139.88,139.88,0,0,1,26.18,19.86c1.66,1,3.23,2.12,4.84,3.18,1.29,1.14,2.61,2.25,3.89,3.4,1.45,1.32,2.92,2.63,4.36,4,3.47,3.2,6.89,6.47,10.28,9.77q4.2,4.13,8.3,8.38c2.41,2.46,4.82,4.91,7.18,7.44h0c5.25,5.66,10.43,11.43,15.44,17.41l0,0,.08.09q5.61,6.67,11.48,13.06h0A419.83,419.83,0,0,0,1066,775.28q13.69,8.84,27.31,17.79c63.5,41.8,125.49,85.89,183.32,135.52,19.4,16.66,37.22,35.15,56.36,52.12,7.23,6.42,14.18,8.86,20.18,7.45s11-6.67,14.49-15.66a73,73,0,0,0,2.68-8.46c4.88-19.61.24-38.12-12.73-55.14-33.55-44-71.87-83.29-112.65-120.17q-20.39-18.43-41.52-36.17c-11.45-9.65-22.52-20.48-31.12-32.64q-1.48-2.08-2.81-4.22c-9.73-15.6-13-32.33-8.74-49a68.17,68.17,0,0,1,7.61-18.13q3-5.1,6.38-9.86a140.12,140.12,0,0,1,31.71-32.4,130.76,130.76,0,0,1,18.85-11.46c29.45-14.6,63.77-17.26,96.69-3.62,22.17,9.19,44.62,13.56,66.62,9.78,2.2-.38,4.4-.84,6.58-1.38a97.53,97.53,0,0,0,32.38-14.94c14.92-10.38,23.71-21.86,26.76-34.85a47.63,47.63,0,0,0,1.22-10A56,56,0,0,0,1454.63,529.15Zm-86.36-73.4c-29.49,1.6-41.9-13.82-43-21.9s2.28-17.63,2.28-17.63c14.2-6.72,30.21-6.39,37.91,7S1368.27,455.75,1368.27,455.75Z" />
    <path class="cls-1"
        d="M1489.71,17.07h-13.82V54.25h-6.23V17.07h-14.13V11.46h34.18Zm54.74,37.18h-6.23V18.31h-.2l-14.45,35.94h-4l-14.45-35.94h-.21V54.25h-6.23V11.46h9.66l13.4,32.82,13.4-32.82h9.35Z" />
</svg>